<?xml version="1.0" encoding="UTF-8"?><svg id="a" xmlns="http://www.w3.org/2000/svg" xmlns:xlink="http://www.w3.org/1999/xlink" viewBox="0 0 778.2 189.65"><defs><style>.c,.d{fill:#947abb;stroke:#fff;stroke-miterlimit:10;}.e{fill:#333;font-size:120px;}.e,.d{font-family:Ramabhadra, Ramabhadra;}.f{fill:url(#b);}.d{font-size:87px;}</style><linearGradient id="b" x1="327.71" y1="109.94" x2="716.71" y2="109.94" gradientTransform="matrix(1, 0, 0, 1, 0, 0)" gradientUnits="userSpaceOnUse"><stop offset="0" stop-color="#fff" stop-opacity="0"/><stop offset=".14" stop-color="#fff" stop-opacity=".05"/><stop offset=".52" stop-color="#fff" stop-opacity=".7"/><stop offset=".84" stop-color="#fff" stop-opacity=".3"/><stop offset=".96" stop-color="#fff" stop-opacity=".2"/><stop offset="1" stop-color="#fff" stop-opacity="0"/></linearGradient></defs><path class="c" d="M742.34,138.1c-2.35,0-4.64-.07-6.8-.17-24.15-1.1-69.88-8.03-122.83-16.05-60.28-9.14-128.61-19.49-184.11-24.17-81.01-6.83-98.26,2.12-101.33,8.07l-7.11-3.67c7.38-14.3,41.03-18.11,109.11-12.37,55.76,4.7,124.23,15.08,184.63,24.24,52.73,7.99,98.27,14.89,121.99,15.97,18.05,.82,28.92-1.86,32.33-7.96,1.68-3,2.21-8.12,0-12.1-3.3-5.94-11.92-6.94-21.05-8.01-10.19-1.19-21.74-2.54-26.96-12.01-3.18-5.76-3.16-13.37,.04-18.93,5.8-10.07,21.93-13.07,39.23-7.3l-2.53,7.59c-15.05-5.03-26.57-1.84-29.77,3.7-1.54,2.68-2.02,7.34,.04,11.07,3.23,5.86,11.8,6.86,20.88,7.92,10.23,1.19,21.82,2.54,27.12,12.07,3.32,5.96,3.32,13.96,0,19.9-5.71,10.21-20.2,12.21-32.87,12.21Z"/><rect class="f" x="327.71" y="81.44" width="389" height="57"/><path class="c" d="M396.3,152.96c-12.01,0-24.35-2.4-35.1-5.97-23.94-7.95-40.59-21.48-42.44-34.49-.21-1.49-.86-6.02,1.41-10.4l7.11,3.67c-1.09,2.11-.73,4.65-.59,5.6,1.38,9.72,16.61,21.24,37.04,28.02,21.13,7.01,51.4,9.58,67.16-6.28,8.38-8.43,14.6-23.97,9.63-36.17-4.97-12.2-19.92-16.1-34.39-19.87-14.85-3.87-30.2-7.87-34.7-21.37-2.63-7.87-1.21-17.85,3.89-27.38,6.33-11.82,16.84-20.48,28.85-23.74,13.28-3.62,25.73-.17,34.75,4.55,2.06-2.56,4.52-5.36,7.38-8.43l5.84,5.47c-2.58,2.76-4.67,5.15-6.36,7.21,1.78,1.3,3.28,2.56,4.44,3.7,3.97,3.87,5.61,7.34,4.88,10.31-.76,3.08-3.95,5.25-8.99,6.12-4.85,.83-11.49,.31-14.24-3.88-2.18-3.33-1.52-7.76,2.31-13.93-5.93-2.87-16.5-6.51-27.92-3.4-9.75,2.65-18.68,10.06-23.9,19.8-4.01,7.49-5.26,15.36-3.36,21.07,3.13,9.38,15.76,12.67,29.13,16.16,15.61,4.07,33.3,8.68,39.78,24.6,6.33,15.55-.93,34.32-11.37,44.83-10.25,10.32-24.99,14.2-40.25,14.2Zm50.99-126.72h0Zm-8.64-.97c1.36,.85,5.78,.73,8.07-.09-.89-1.27-2.79-3.25-5.67-5.36-2.13,3.38-2.39,4.95-2.4,5.46Z"/><text class="d" transform="translate(452.98 134.34)"><tspan x="0" y="0">CRIPT</tspan></text><text class="e" transform="translate(0 111.55)"><tspan x="0" y="0">CRIPT</tspan></text></svg>